<svg id="Layer_1" data-name="Layer 1" xmlns="http://www.w3.org/2000/svg" viewBox="0 0 256 256"><defs><style>.cls-1{fill:#bb001f;}</style></defs><title>Icons</title><path d="M216.65,51H39.35a21.9,21.9,0,0,0-21.9,21.9V183.1A21.9,21.9,0,0,0,39.35,205h177.3a21.9,21.9,0,0,0,21.9-21.9V72.9A21.9,21.9,0,0,0,216.65,51Zm11.9,132.1a11.92,11.92,0,0,1-11.9,11.9H39.35a11.92,11.92,0,0,1-11.9-11.9V125.25h201.1ZM27.45,97V72.9A11.92,11.92,0,0,1,39.35,61h177.3a11.92,11.92,0,0,1,11.9,11.9V97Z"/><path class="cls-1" d="M165.34,183.37c8.81-2,9.76-7.11,10.42-16.6-1.53,2.53-4.31,4.4-8.86,4.39-7.46,0-12.47-4.37-10.69-13.75s15.24-13.11,21.35-22.9c6.1,9.79,19.54,13.45,21.34,22.9s-3,13.72-10.69,13.75c-4.55,0-7.33-1.86-8.86-4.39.67,9.49,1.61,14.65,10.42,16.6Z"/><rect x="41.59" y="162.29" width="53.79" height="12.08"/><rect x="105.89" y="162.29" width="27.24" height="12.08"/></svg>