<svg id="Layer_1" data-name="Layer 1" xmlns="http://www.w3.org/2000/svg" viewBox="0 0 256 256"><defs><style>.cls-1{fill:#bb001f;}</style></defs><title>Icons</title><polygon points="135.71 150.26 238.07 38.21 218.19 38.21 128 136.93 37.81 38.21 17.93 38.21 120.3 150.26 120.3 211.18 80.75 255 175.39 255 135.71 211.18 135.71 150.26"/><path d="M199.14,39.12c-3.28-7.9-10.76-12.3-16.72-9.82-3.72,1.54-6,5.4-6.32,10,4.76,1,9.51,2.17,12.43,6.12,3.3,4.44,3.34,8,2.8,10.21A9,9,0,0,1,190,58.54a9.24,9.24,0,0,0,4.25-.64C200.25,55.43,202.42,47,199.14,39.12Z"/><path d="M224.61,3,207.47,19.41,196.88,31a18.66,18.66,0,0,1,1.18,1.48c.28.33.55.67.8,1l10.93-12Z"/><path d="M156.76,74.42a9.31,9.31,0,0,0,3.2-.37l1.91-.55.84-.92-3.79-.53Z"/><path d="M142,91l-8.87,9.69-14.81,18.53,17.14-16.41L144.42,93A20.89,20.89,0,0,1,142,91Z"/><path d="M158.5,76.68c-2.52-.33-7-2-9-9.28a13.25,13.25,0,0,1-.27-1.34,9.46,9.46,0,0,0-5.75,1.57c-5.33,3.61-5.77,12.28-1,19.36s13,9.89,18.35,6.27c4.75-3.22,5.61-10.45,2.34-17A11.48,11.48,0,0,1,158.5,76.68Z"/><path class="cls-1" d="M169.12,77.61,187,69c-7.12,1.68-9.63-1.75-13.47-8.45,2,1.31,4.71,1.69,8,.08,5.6-2.73,7.57-7.59,3-13.81s-15.75-4.21-23.67-9.21c-1,9.31-9.53,16.73-7.51,24.27s7.19,8.88,12.66,6.27c3.32-1.6,4.69-3.94,4.92-6.34C173.74,69,174.87,73.08,169.12,77.61Z"/><path d="M142.25,59.76H62.81l-3.67-4.21H143.2C141.76,58,142.12,59.08,142.25,59.76Z"/></svg>