<svg id="Layer_1" data-name="Layer 1" xmlns="http://www.w3.org/2000/svg" viewBox="0 0 256 256"><defs><style>.cls-1{fill:#bb001f;}</style></defs><title>Icons</title><path d="M166.52,110.5H92.9a13.17,13.17,0,0,0-13.17,13.16V253h100V123.66A13.16,13.16,0,0,0,166.52,110.5Zm-3.88,10.67-13.28,10.06-13.28-10.06Zm-39.3,0-13.28,10.06L96.78,121.17Zm-.94,41.77L93.24,121.17l16.82,12.74,16.39-12.42ZM133,121.49l16.39,12.42,16.81-12.74L137,162.94Zm42.32,43.16H151.88v-1.11h19.51l-1.23-1.17H155.3l9.42-7,8.2,8.21h2.37Z"/><path d="M129.71,3a50,50,0,1,0,50,50A50,50,0,0,0,129.71,3Zm0,89.28A39.36,39.36,0,0,1,90.4,53c0-.63,0-1.26,0-1.88,19.17,5.74,47.49-20.7,58.71-32.25a39.29,39.29,0,0,1-19.45,73.44Z"/><path d="M77.24,130.07c-5.3-4.45-.69-17.66.24-33.09,1-16.51-7-26.91-13.2-28.68a10.86,10.86,0,0,0-8,1c-1.66-2.32-5.36-6.83-9.22-7-5.2-.2-33.21-1.16-32.61,35.33.44,26.65-5.12,31-7.62,33.12,4.95.7,18.28-2.83,22-12.72A27.84,27.84,0,0,0,67,114.61C68,122.84,74.47,128.15,77.24,130.07Zm-31.17-12A21.94,21.94,0,0,1,24.16,96.16q0-.52,0-1c10.69,3.2,26.47-11.54,32.73-18a21.9,21.9,0,0,1-10.85,40.94Z"/><path d="M62,130.69H30.14a11.93,11.93,0,0,0-11.93,11.93l5.16,50.56V201L18.21,246.4H73.94L68.68,201v-7.8l5.26-50.56A11.93,11.93,0,0,0,62,130.69Zm-5.09,7.8c-1.79,3.2-5.72,10.94-6.73,18.92a4.14,4.14,0,0,1-8.23,0c-1-8-5-15.72-6.74-18.92ZM65.28,238.6H27.07L30.27,201H61.15ZM62,193.18H29.27l-3.2-47.69A7,7,0,0,1,30.53,139c5.67,8.24,6.89,18.37,6.89,18.37s.6,7.52,7.71,7.86H47c7.11-.34,7.71-7.86,7.71-7.86S56,147.21,61.62,139a7,7,0,0,1,4.46,6.52Z"/><path d="M246.87,83.29a6.42,6.42,0,0,0,1.18-2.22c1.34-4-4.8-2.4-4-9.07,0,0-3-1.86-4.83,0h0s-5.67-6.13-4.17-10c0,0-1.9-.35-2.5,1.22a17.4,17.4,0,0,0-11.11-7.63c-7.8-1.7-10.3-2.5-10.5-3.2,0,0-.7,1.4.8,5.21a20.81,20.81,0,0,0-8.5.6c-3.7,1.3-11.61,4.7-12.71,3.6a5.31,5.31,0,0,0,2.9,4.3,8.29,8.29,0,0,0-5.1,6.3c-.9,4.9-2.3,3.5-2.3,3.5a5.66,5.66,0,0,0,1.9,2.6s-2.49,3.3-2.7,6.6c-.13,2.18-.07,6.71,0,9.83,0,.09,0,.17,0,.26,0,.83.05,1.65.11,2.46,0,.21,0,.38,0,.47s0,0,0,0a32,32,0,1,0,61.49-14.83Zm-29.67,37a25.14,25.14,0,1,1,9.46-48.42c3,3.4,6.8,9.76,13,11.92a25.13,25.13,0,0,1-22.41,36.5Z"/><path d="M231.66,135H202.73a17.51,17.51,0,0,0-17.5,17.5V246.4h63.93V152.46A17.51,17.51,0,0,0,231.66,135Zm-2.45,8.54a12.28,12.28,0,0,1-24,0Zm-15.1,94.36H193.77V224.62h20.34Zm26.51,0H220.2V224.62h20.42Zm-46.85-21.77V152.46a8.93,8.93,0,0,1,3.14-6.8,20.82,20.82,0,0,0,40.57,0,8.93,8.93,0,0,1,3.14,6.8v63.63Z"/><path class="cls-1" d="M219.38,193.22c4.89-1.08,5.42-3.95,5.79-9.22a5.31,5.31,0,0,1-4.92,2.44c-4.15,0-6.93-2.43-5.94-7.64s8.46-7.29,11.86-12.72c3.39,5.43,10.86,7.47,11.85,12.72s-1.67,7.62-5.94,7.64a5.31,5.31,0,0,1-4.92-2.44c.37,5.27.9,8.14,5.79,9.22Z"/></svg>