<svg id="Layer_1" data-name="Layer 1" xmlns="http://www.w3.org/2000/svg" viewBox="0 0 256 256"><defs><style>.cls-1{fill:none;}.cls-2{fill:#bb001f;}</style></defs><title>Icons</title><path d="M53.2,132h-43A7.2,7.2,0,0,0,3,139.18v86.24a7.2,7.2,0,0,0,7.21,7.2h43a7.2,7.2,0,0,0,7.21-7.2V139.18A7.2,7.2,0,0,0,53.2,132Zm-29.88,5.09H39v3.36H23.32Zm8.79,88.78a5.08,5.08,0,1,1,4.66-5.47A5.08,5.08,0,0,1,32.11,225.85Zm22.52-16.46H8.78V144.9H54.63Z"/><path d="M242.94,99.42H165.15a10.06,10.06,0,0,0-10.06,10.07V222.56a10.05,10.05,0,0,0,10.06,10.06h77.79A10.06,10.06,0,0,0,253,222.56V109.49A10.07,10.07,0,0,0,242.94,99.42ZM204.45,229.2a5.08,5.08,0,1,1,4.66-5.46A5.07,5.07,0,0,1,204.45,229.2Zm39.17-15.15H164v-104h79.59Z"/><circle class="cls-1" cx="125.98" cy="170.77" r="8.48"/><path d="M141,84.39h-1.16V78.92A9.94,9.94,0,0,0,129.91,69h-8.3a9.94,9.94,0,0,0-9.93,9.94v5.47h-1.16a7.49,7.49,0,0,0-7.5,7.49v30.49a7.49,7.49,0,0,0,7.5,7.49H141a7.49,7.49,0,0,0,7.49-7.49V91.88A7.49,7.49,0,0,0,141,84.39Zm-12.74,25,1.1,8.13h-7.21l1.12-8.33a5.59,5.59,0,1,1,5,.2Zm3.63-25H119.63V78.92a2,2,0,0,1,2-2h8.3a2,2,0,0,1,2,2Z"/><path class="cls-2" d="M188.58,193.2c11.15-2.47,12.35-9,13.19-21-1.94,3.21-5.46,5.58-11.21,5.56-9.44,0-15.77-5.53-13.52-17.39s19.27-16.59,27-29c7.72,12.38,24.72,17,27,29s-3.82,17.35-13.53,17.39c-5.75,0-9.27-2.35-11.2-5.56.84,12,2,18.54,13.18,21Z"/><path d="M81.47,218.89h66.45V153.1H67.58v35h34.85l-21,20.31ZM126,162.29a8.48,8.48,0,1,1-8.48,8.48A8.48,8.48,0,0,1,126,162.29Z"/><path d="M222.53,23.38H30.3A14.07,14.07,0,0,0,16.23,37.45V124.8H31.7V39H220V92.25H236.6V37.45A14.07,14.07,0,0,0,222.53,23.38Z"/></svg>