<svg id="Layer_1" data-name="Layer 1" xmlns="http://www.w3.org/2000/svg" viewBox="0 0 256 256"><defs><style>.cls-1{fill:#bb001f;}</style></defs><title>Icons</title><path d="M185.51,101.75a100.18,100.18,0,0,1,6.43,30.92,5.79,5.79,0,0,0,6.42,5.48h0a5.81,5.81,0,0,0,5.2-6A109.1,109.1,0,0,0,178.76,67a5.8,5.8,0,0,0-7.84-1h0a5.81,5.81,0,0,0-1.16,8.36A100.08,100.08,0,0,1,185.51,101.75Z"/><path d="M208.7,92.06a176.38,176.38,0,0,1,11,48.73,6.32,6.32,0,0,0,6.7,5.83h0a6.3,6.3,0,0,0,5.9-6.77,189.73,189.73,0,0,0-11.83-52.27,189.11,189.11,0,0,0-25.9-46.9,6.31,6.31,0,0,0-8.91-1.15h0a6.32,6.32,0,0,0-1.12,8.81A176.44,176.44,0,0,1,208.7,92.06Z"/><path d="M194.34,169.32,145.48,36.77a12,12,0,0,0-21.88-1.5c-16.32,30.44-36,51.4-57.34,67.56h0L13.08,122.44A15.41,15.41,0,0,0,4,142.22L18.23,181A15.4,15.4,0,0,0,38,190.07l9.62-3.55,15.53,42.14L108.72,236c-11-18.18-30.1-38.25-33.81-59.57l16.28-6c26.74-1.57,55.31,1.62,87.48,14.19A12,12,0,0,0,194.34,169.32ZM34.55,180.69a5.51,5.51,0,0,1-1.87.34,5.44,5.44,0,0,1-5.07-3.54L13.34,138.76a5.4,5.4,0,0,1,3.2-6.94l43.8-16.14,18,48.86Zm150.21-6.12a1.94,1.94,0,0,1-2.46.77c-26.25-10.25-52-15.24-78.67-15.24h0L82.41,102.67c1-.9,2.09-1.79,3.11-2.71a214.15,214.15,0,0,0,46.9-60,1.87,1.87,0,0,1,1.77-1.08,1.9,1.9,0,0,1,1.91,1.32L185,172.78A1.81,1.81,0,0,1,184.76,174.57Z"/><path class="cls-1" d="M55.64,155.26c5.26-2,7.46-6.16,3.86-12.15S45.72,138,39.05,132.78c-1.72,8.27-10,14.19-8.86,21.14s5.69,8.6,10.82,6.73c3.13-1.14,4.56-3.13,5-5.26,2,6.69,2.6,10.47-2.95,14l16.78-6.18c-6.55.89-8.5-2.42-11.36-8.77C50.14,155.84,52.53,156.42,55.64,155.26Z"/></svg>