<svg id="Layer_1" data-name="Layer 1" xmlns="http://www.w3.org/2000/svg" viewBox="0 0 256 256"><defs><style>.cls-1{fill:#bb001f;}</style></defs><title>Icons</title><path d="M188.48,115.13a61,61,0,1,0-78.66,58.44v55.15a9.67,9.67,0,0,0,9.66,9.66h15.93a9.66,9.66,0,0,0,9.66-9.66V173.57A61.06,61.06,0,0,0,188.48,115.13Zm-61,46.24a46.25,46.25,0,1,1,46.25-46.24A46.29,46.29,0,0,1,127.45,161.37Z"/><path class="cls-1" d="M113.68,142.64c9.92-2.2,11-8,11.74-18.7-1.72,2.86-4.86,5-10,4.95-8.41,0-14-4.92-12-15.48s17.16-14.78,24-25.8c6.88,11,22,15.15,24,25.8s-3.4,15.45-12,15.48c-5.12,0-8.25-2.09-10-4.95.75,10.69,1.82,16.5,11.74,18.7Z"/><path d="M58.38,202.58a7.34,7.34,0,0,0-2.4-7.27,108.17,108.17,0,0,1-1.16-164,7.34,7.34,0,0,0,2.32-7.21h0a7.36,7.36,0,0,0-12-3.9,122.76,122.76,0,0,0,1.31,186.31,7.36,7.36,0,0,0,11.91-4Z"/><path d="M197.94,23.31v0a7.37,7.37,0,0,0,2.38,7.25,108.19,108.19,0,0,1-1.15,165.46,7.33,7.33,0,0,0-2.46,7.32h0a7.35,7.35,0,0,0,11.85,4,122.76,122.76,0,0,0,1.31-188A7.35,7.35,0,0,0,197.94,23.31Z"/><path d="M192.28,67.46h0a7.27,7.27,0,0,0,1.05,5.77,70.73,70.73,0,0,1-1,80.64,7.3,7.3,0,0,0-1.15,5.91h0a7.38,7.38,0,0,0,13.19,2.61A85.32,85.32,0,0,0,205.55,65,7.38,7.38,0,0,0,192.28,67.46Z"/><path d="M64,158.6h0a7.37,7.37,0,0,0-1.08-5.81,70.71,70.71,0,0,1-1-78.44,7.32,7.32,0,0,0,1-5.66h0a7.37,7.37,0,0,0-13.31-2.44,85.38,85.38,0,0,0,1.16,94.88A7.39,7.39,0,0,0,64,158.6Z"/></svg>