<svg id="Layer_1" data-name="Layer 1" xmlns="http://www.w3.org/2000/svg" viewBox="0 0 256 256"><defs><style>.cls-1{fill:#bb001f;}</style></defs><title>Icons</title><path d="M238.13,128h-65a45.08,45.08,0,0,0-20-36.32,47,47,0,0,1-50.32,0,45.08,45.08,0,0,0-20,36.32h-65A14.88,14.88,0,0,0,3,142.88v95.25A14.88,14.88,0,0,0,17.88,253H34.75V225h186.5v28h16.88A14.87,14.87,0,0,0,253,238.13V142.88A14.88,14.88,0,0,0,238.13,128ZM222,210H34.88V148.2H222Z"/><path d="M128,18.43A33.6,33.6,0,1,0,161.59,52,33.59,33.59,0,0,0,128,18.43Z"/><path class="cls-1" d="M117.51,200.06c7.56-1.68,8.38-6.1,8.95-14.25-1.32,2.18-3.71,3.79-7.6,3.77-6.41,0-10.7-3.75-9.18-11.79s13.07-11.26,18.32-19.65c5.24,8.39,16.77,11.54,18.31,19.65s-2.59,11.77-9.18,11.79c-3.89,0-6.28-1.59-7.59-3.77.57,8.15,1.38,12.57,8.94,14.25Z"/></svg>