<svg id="Layer_1" data-name="Layer 1" xmlns="http://www.w3.org/2000/svg" xmlns:xlink="http://www.w3.org/1999/xlink" viewBox="0 0 256 256"><defs><style>.cls-1{fill:none;}.cls-2{clip-path:url(#clip-path);}.cls-3{fill:#bb001f;}.cls-4{clip-path:url(#clip-path-2);}</style><clipPath id="clip-path"><polygon class="cls-1" points="3 161.59 73.33 132.81 107.75 176.87 207.5 123.11 204.32 19.86 3.75 19.86 3 161.59"/></clipPath><clipPath id="clip-path-2"><polygon class="cls-1" points="5.5 197.17 63 173.42 96.75 215.92 214.75 154.17 214.75 236.14 5.5 236.14 5.5 197.17"/></clipPath></defs><title>Icons</title><g class="cls-2"><path d="M199.72,83.85a99.27,99.27,0,1,0,7.78,38.53A98.63,98.63,0,0,0,199.72,83.85Zm-27.5,102.22a89.64,89.64,0,0,1-15.52,12.44l-5-11.41a77.59,77.59,0,0,1-25,10.94l5,11.41a90.61,90.61,0,0,1-46.32,0l5-11.4a77.47,77.47,0,0,1-25-10.93l-5,11.41a90.8,90.8,0,0,1-28-28l11.41-5a77.22,77.22,0,0,1-10.94-25l-11.39,5a90.61,90.61,0,0,1,0-46.36l11.38,5a77.22,77.22,0,0,1,10.94-25l-11.38-5a90.38,90.38,0,0,1,28-28l5,11.37a77.24,77.24,0,0,1,25-10.92l-5-11.37a90.64,90.64,0,0,1,46.29,0l-5,11.36a77.59,77.59,0,0,1,25,10.94l5-11.38a90.8,90.8,0,0,1,28,28l-11.38,5a77.38,77.38,0,0,1,10.92,25l11.38-5a90.48,90.48,0,0,1,0,46.25l-11.39-5a77.38,77.38,0,0,1-10.92,25l11.4,5A89.81,89.81,0,0,1,172.22,186.07Z"/><path d="M108.53,55.28a67.1,67.1,0,1,0,67.1,67.1A67.1,67.1,0,0,0,108.53,55.28ZM155,82.19l-2,2a59.63,59.63,0,0,0-8.5-8.08l2-2A61.88,61.88,0,0,1,155,82.19ZM115.69,183.4v-2.83a58,58,0,0,0,29.78-12.66l2,2A61.35,61.35,0,0,1,115.69,183.4Zm-7.16-5.27a55.75,55.75,0,1,1,55.75-55.75A55.82,55.82,0,0,1,108.53,178.13Zm-7.45,5.23a61.25,61.25,0,0,1-31.64-13.61l2-2a58.1,58.1,0,0,0,29.66,12.77ZM50.61,113.19H47.78A61.25,61.25,0,0,1,61,83.46l2,2A58,58,0,0,0,50.61,113.19Zm-3.28,14.6h2.82a57.93,57.93,0,0,0,11.2,29.4l-2,2A61.19,61.19,0,0,1,47.33,127.79Zm-.11-1.44c-.09-1.31-.14-2.64-.14-4a60.05,60.05,0,0,1,.5-7.75h2.84a59.93,59.93,0,0,0-.51,7.75c0,1.33.05,2.66.14,4Zm53.86-65v2.83a58,58,0,0,0-27.54,11.1l-2-2A61.21,61.21,0,0,1,101.08,61.39Zm14.61,0a61.26,61.26,0,0,1,29.64,11.85l-2,2a58.09,58.09,0,0,0-27.66-11Zm38.23,23.91,2-2a61.35,61.35,0,0,1,13.38,29.9h-2.84A58,58,0,0,0,153.92,85.27Zm13,42.52h2.82a61.22,61.22,0,0,1-12.16,31.56l-2-2A58,58,0,0,0,166.91,127.79Zm.1-1.44c.09-1.31.14-2.64.14-4a59.93,59.93,0,0,0-.51-7.75h2.84a63.85,63.85,0,0,1,.5,7.75c0,1.33-.06,2.66-.14,4ZM114.24,61.21V64c-1.88-.18-3.78-.28-5.71-.28a59.72,59.72,0,0,0-6,.3V61.23c2-.19,4-.3,6-.3S112.36,61,114.24,61.21Zm-43.83,13,2,2a58.48,58.48,0,0,0-8.46,8.11l-2-2A61.85,61.85,0,0,1,70.41,74.23ZM60.24,160.34l2-2a59.63,59.63,0,0,0,8.08,8.5l-2,2A61.88,61.88,0,0,1,60.24,160.34Zm42.28,23.18v-2.83a59.71,59.71,0,0,0,6,.31c1.93,0,3.83-.1,5.71-.28v2.83q-2.82.27-5.71.28Q105.49,183.82,102.52,183.52Zm46-14.57-2-2a59.06,59.06,0,0,0,8.12-8.46l2,2A61.21,61.21,0,0,1,148.56,169Z"/><path class="cls-3" d="M86.44,168.71c17.07-3.8,18.91-13.79,20.2-32.18-3,4.91-8.36,8.54-17.16,8.51C75,145,65.31,136.57,68.76,118.4S98.28,93,110.12,74C122,93,148,100.09,151.47,118.4S145.63,145,130.76,145c-8.81,0-14.2-3.6-17.17-8.51,1.29,18.39,3.13,28.38,20.2,32.18Z"/></g><polygon points="253 112.25 210.59 102.16 223.1 122.48 105.58 185.49 71.46 142.18 8.08 167.83 8.08 185.43 64.07 162.87 98.19 206.18 231.22 135.66 242.91 154.65 253 112.25"/><g class="cls-4"><path d="M199.62,83.9a99.17,99.17,0,1,0,7.77,38.48A98.6,98.6,0,0,0,199.62,83.9Zm-27.4,102.17a89.64,89.64,0,0,1-15.52,12.44l-5-11.41a77.59,77.59,0,0,1-25,10.94l5,11.41a90.61,90.61,0,0,1-46.32,0l5-11.4a77.47,77.47,0,0,1-25-10.93l-5,11.41a90.8,90.8,0,0,1-28-28l11.41-5a77.22,77.22,0,0,1-10.94-25l-11.39,5a90.61,90.61,0,0,1,0-46.36l11.38,5a77.22,77.22,0,0,1,10.94-25l-11.38-5a90.38,90.38,0,0,1,28-28l5,11.37a77.24,77.24,0,0,1,25-10.92l-5-11.37a90.64,90.64,0,0,1,46.29,0l-5,11.36a77.59,77.59,0,0,1,25,10.94l5-11.38a90.8,90.8,0,0,1,28,28l-11.38,5a77.38,77.38,0,0,1,10.92,25l11.38-5a90.48,90.48,0,0,1,0,46.25l-11.39-5a77.38,77.38,0,0,1-10.92,25l11.4,5A89.81,89.81,0,0,1,172.22,186.07Z"/><path d="M108.53,57.79a64.59,64.59,0,1,0,64.59,64.59A64.59,64.59,0,0,0,108.53,57.79ZM155,82.19l-2,2a59.63,59.63,0,0,0-8.5-8.08l2-2A61.88,61.88,0,0,1,155,82.19ZM115.69,183.4v-2.83a58,58,0,0,0,29.78-12.66l2,2A61.35,61.35,0,0,1,115.69,183.4Zm-7.16-5.27a55.75,55.75,0,1,1,55.75-55.75A55.82,55.82,0,0,1,108.53,178.13Zm-7.45,5.23a61.25,61.25,0,0,1-31.64-13.61l2-2a58,58,0,0,0,29.65,12.77ZM50.61,113.19H47.78A61.25,61.25,0,0,1,61,83.46l2,2A58,58,0,0,0,50.61,113.19Zm-3.28,14.6h2.82a57.93,57.93,0,0,0,11.2,29.4l-2,2A61.19,61.19,0,0,1,47.33,127.79Zm-.11-1.44c-.09-1.31-.14-2.64-.14-4a61.89,61.89,0,0,1,.5-7.75h2.84a59.93,59.93,0,0,0-.51,7.75c0,1.33.05,2.66.14,4Zm53.86-65v2.83a58,58,0,0,0-27.54,11.1l-2-2A61.21,61.21,0,0,1,101.08,61.39Zm14.61,0a61.26,61.26,0,0,1,29.64,11.85l-2,2a58.09,58.09,0,0,0-27.66-11Zm38.23,23.91,2-2a61.43,61.43,0,0,1,13.37,29.9h-2.84A58,58,0,0,0,153.92,85.27Zm13,42.52h2.82a61.22,61.22,0,0,1-12.16,31.56l-2-2A58.11,58.11,0,0,0,166.91,127.79Zm.1-1.44c.09-1.31.14-2.64.14-4a59.93,59.93,0,0,0-.51-7.75h2.84a63.85,63.85,0,0,1,.5,7.75c0,1.33,0,2.66-.14,4ZM114.24,61.21V64c-1.88-.18-3.78-.28-5.71-.28a59.72,59.72,0,0,0-6,.3V61.23c2-.19,4-.3,6-.3S112.36,61,114.24,61.21Zm-43.83,13,2,2a58.48,58.48,0,0,0-8.46,8.11l-2-2A61.85,61.85,0,0,1,70.41,74.23ZM60.24,160.34l2-2a59.63,59.63,0,0,0,8.08,8.5l-2,2A61.88,61.88,0,0,1,60.24,160.34Zm42.28,23.18v-2.83a59.71,59.71,0,0,0,6,.31c1.93,0,3.83-.1,5.71-.28v2.83q-2.82.27-5.71.28Q105.49,183.82,102.52,183.52Zm46-14.57-2-2a59.06,59.06,0,0,0,8.12-8.46l2,2A61.21,61.21,0,0,1,148.56,169Z"/></g></svg>