<svg id="Layer_1" data-name="Layer 1" xmlns="http://www.w3.org/2000/svg" viewBox="0 0 256 256"><defs><style>.cls-1{fill:none;}.cls-2{fill:#bb001f;}</style></defs><title>Icons</title><path class="cls-1" d="M72.6,65.79a7.14,7.14,0,0,0,3.21.77c4,0,7.5-3.38,7.6-8.14.12-5.38,0-10.77,0-16.15h0c0-5.3,0-10.61,0-15.91-.05-4.81-3.32-8.42-7.57-8.5s-7.76,3.47-7.81,8.27C67.93,36.81,68,47.5,68,58.19A8,8,0,0,0,72.6,65.79Z"/><path class="cls-1" d="M121.4,42.17c0,5.62-.11,11.23,0,16.84a7.58,7.58,0,0,0,15.12.66,16.78,16.78,0,0,0,.2-2.56q0-14.85,0-29.71a14.74,14.74,0,0,0-.31-3.25,7.57,7.57,0,0,0-15,1.41c-.16,5.53,0,11.07,0,16.61Z"/><path class="cls-1" d="M122.7,176.3v9.58a97.6,97.6,0,0,0,2.06-16.11,17.13,17.13,0,0,1-7.05,6.53Z"/><path class="cls-1" d="M179.08,65.77a7.21,7.21,0,0,0,3.26.79c3.94,0,7.49-3.35,7.59-8.08.13-5.38,0-10.77,0-16.15h0c0-5.3,0-10.61,0-15.91,0-4.83-3.25-8.43-7.51-8.55s-7.8,3.39-7.86,8.2c-.13,10.76-.1,21.53,0,32.29A7.88,7.88,0,0,0,179.08,65.77Z"/><path class="cls-1" d="M133.28,176.34h5.8a17.16,17.16,0,0,1-7.12-6.57c.33,4.71.69,8.88,1.32,12.56v-6Z"/><path class="cls-1" d="M37.4,77.88V218.47c0,8.56,4.59,13.1,13.23,13.1h154.8c8.61,0,13.18-4.56,13.19-13.13V75.23H37.4Zm136.29,26.54h30v26.72h-30Zm0,36h30V167h-30Zm0,36h30.06v26.48H173.68ZM85.58,151c1.54-8.16,7.42-14.16,14.58-19.92H92.79V104.46h30v7.84a48.22,48.22,0,0,0,5.55-7.2,47.29,47.29,0,0,0,4.95,6.53v-7.2h29.83v26.75h-6.49c7.12,5.73,12.95,11.72,14.49,19.84,2.54,13.39-1.61,21.65-9.76,25.32h1.84v26.58h-11l.59.14h-49l.57-.13H92.85V176.3h2.6C87.37,172.62,83,164.36,85.58,151ZM52.4,104.45h30v26.74h-30Zm29.9,35.91v26.71H52.42V140.36Zm-30,62.53V176.37h30v26.52h-30Z"/><path d="M235.11,65.16a34.17,34.17,0,0,0-6.42-20.23c-6.21-8.48-14.17-11-22.71-11h-6.22c0-3.24.16-6.27,0-9.28A17.68,17.68,0,0,0,184.47,8.2a17.47,17.47,0,0,0-19.42,14.91c-.41,3.46-.4,7-.59,10.65H146.83c-.15-3.29-.2-6.62-.49-9.93A17.68,17.68,0,0,0,129.06,8H129a17.74,17.74,0,0,0-17.33,16.19c-.2,3.1,0,6.23,0,9.54H93.25c0-3,.16-5.93,0-8.86A17.68,17.68,0,0,0,78.12,8.23,17.43,17.43,0,0,0,58.55,22.94c-.46,3.53-.42,7.13-.64,11.16-3.64,0-7.29-.2-10.92,0a27.63,27.63,0,0,0-26,27c-.18,6.94-.06,13.9-.06,20.85V218.88c0,12.29,5.5,21.22,16.53,26.6a18.88,18.88,0,0,0,2.19.88A33.63,33.63,0,0,0,50.38,248H204.7a36.09,36.09,0,0,0,11.65-1.94,28,28,0,0,0,5.47-2.41c8.39-5.07,12.75-12.81,13.23-22.66,0-.78,0-1.56,0-2.34Q235.09,141.89,235.11,65.16ZM174.59,26.07c.06-4.81,3.65-8.32,7.86-8.2s7.47,3.72,7.51,8.55c0,5.3,0,10.61,0,15.91h0c0,5.38.1,10.77,0,16.15-.1,4.73-3.65,8.08-7.59,8.08a7.21,7.21,0,0,1-3.26-.79,7.88,7.88,0,0,1-4.5-7.41C174.49,47.6,174.46,36.83,174.59,26.07Zm-53.17-.51a7.57,7.57,0,0,1,15-1.41,14.74,14.74,0,0,1,.31,3.25q0,14.85,0,29.71a16.78,16.78,0,0,1-.2,2.56A7.58,7.58,0,0,1,121.43,59c-.14-5.61,0-11.22,0-16.84h0C121.39,36.63,121.26,31.09,121.42,25.56Zm-53.37.57c0-4.8,3.59-8.34,7.81-8.27s7.52,3.69,7.57,8.5c0,5.3,0,10.61,0,15.91h0c0,5.38.1,10.77,0,16.15-.1,4.76-3.65,8.14-7.6,8.14a7.14,7.14,0,0,1-3.21-.77A8,8,0,0,1,68,58.19C68,47.5,67.93,36.81,68.05,26.13ZM218.62,77.84v140.6c0,8.57-4.58,13.13-13.19,13.13H50.63c-8.64,0-13.23-4.54-13.23-13.1V75.23H218.62Z"/><rect x="173.69" y="104.42" width="29.96" height="26.72"/><rect x="82.39" y="104.45" height="26.74"/><rect x="52.4" y="104.45" width="29.99" height="26.74"/><rect x="52.42" y="140.36" width="29.88" height="26.71"/><rect x="203.67" y="140.41" height="26.63"/><rect x="173.68" y="140.41" width="29.99" height="26.63"/><polygon points="92.79 131.1 92.79 131.1 100.16 131.1 100.17 131.1 92.79 131.1"/><path d="M122.81,112.3v-7.84h-30V131.1h7.37C107.44,125.25,116,119.64,122.81,112.3Z"/><path d="M156.65,131.18h6.49V104.43H133.31v7.2C140.19,119.34,149.14,125.12,156.65,131.18Z"/><rect x="52.34" y="202.89" width="30.02"/><rect x="82.36" y="176.37" height="26.52"/><rect x="52.34" y="176.37" width="30.02" height="26.52"/><rect x="173.68" y="176.39" width="30.07" height="26.48"/><polygon points="92.85 202.92 92.85 202.93 104.44 202.93 104.45 202.92 92.85 202.92"/><path d="M122.7,185.88V176.3h-5a23.14,23.14,0,0,1-10.7,2.27,27.92,27.92,0,0,1-11.56-2.27h-2.6v26.62h11.6C115.83,200.25,120.48,194.78,122.7,185.88Z"/><polygon points="152.26 202.92 163.22 202.92 163.22 202.92 152.26 202.92 152.26 202.92"/><path d="M139.08,176.34h-5.8v6c1.89,11,6.16,17.57,19,20.59h11V176.34h-1.84a28.65,28.65,0,0,1-11.67,2.23A23.32,23.32,0,0,1,139.08,176.34Z"/><polygon class="cls-2" points="122.81 131.1 100.17 131.1 100.16 131.1 122.81 131.1 122.81 131.1"/><path class="cls-2" d="M100.16,131.1h22.65V112.3C116,119.64,107.44,125.25,100.16,131.1Z"/><path class="cls-2" d="M133.31,111.63v19.55h23.34C149.14,125.12,140.19,119.34,133.31,111.63Z"/><rect class="cls-2" x="92.85" y="140.39" width="29.85"/><rect class="cls-2" x="92.85" y="140.4" width="29.85" height="26.62"/><rect class="cls-2" x="133.27" y="167.03" width="29.95"/><rect class="cls-2" x="133.27" y="140.38" width="29.95"/><rect class="cls-2" x="133.27" y="140.38" width="29.95" height="26.65"/><polygon class="cls-2" points="122.7 202.92 104.45 202.92 104.44 202.93 122.7 202.93 122.7 202.92"/><path class="cls-2" d="M104.45,202.92H122.7v-17C120.48,194.78,115.83,200.25,104.45,202.92Z"/><path class="cls-2" d="M117.71,176.3H95.45A27.92,27.92,0,0,0,107,178.57,23.14,23.14,0,0,0,117.71,176.3Z"/><polygon class="cls-2" points="133.28 202.92 133.28 182.33 133.28 182.33 133.28 202.92 152.26 202.92 152.26 202.92 133.28 202.92"/><path class="cls-2" d="M152.26,202.92c-12.82-3-17.09-9.57-19-20.59v20.59Z"/><path class="cls-2" d="M149.71,178.57a28.65,28.65,0,0,0,11.67-2.23h-22.3A23.32,23.32,0,0,0,149.71,178.57Z"/></svg>