<svg id="Layer_1" data-name="Layer 1" xmlns="http://www.w3.org/2000/svg" viewBox="0 0 256 256"><defs><style>.cls-1{fill:#bb001f;}</style></defs><title>Icons</title><path class="cls-1" d="M102.28,153.86c18.54-4.12,20.54-15,21.93-34.94-3.22,5.33-9.07,9.27-18.63,9.24-15.72-.06-26.24-9.19-22.5-28.92C86.86,79.35,115.14,71.64,128,51c12.85,20.6,41.13,28.31,44.91,48.2,3.74,19.73-6.35,28.86-22.5,28.92-9.56,0-15.41-3.91-18.63-9.24,1.39,20,3.39,30.82,21.92,34.94Z"/><path d="M128,8A89.29,89.29,0,0,0,38.71,97.29C38.71,158.5,128,248,128,248s89.29-89.5,89.29-150.71A89.29,89.29,0,0,0,128,8Zm0,162.62a68.17,68.17,0,1,1,68.16-68.17A68.16,68.16,0,0,1,128,170.62Z"/></svg>