<svg id="Layer_1" data-name="Layer 1" xmlns="http://www.w3.org/2000/svg" viewBox="0 0 1280 512"><defs><style>.cls-1{fill:#bb001f;}.cls-2{fill:#606060;}.cls-3{fill:#700000;}.cls-4,.cls-5{fill:#fff;}.cls-4{opacity:0.25;}.cls-5{opacity:0.5;}</style></defs><path class="cls-1" d="M635.31,102.5l16,11.26a2.9,2.9,0,0,0,3.48-.1L762,28a1.94,1.94,0,0,0-1.21-3.45H724.59a7.79,7.79,0,0,0-4.88,1.72L635.05,94.77A4.85,4.85,0,0,0,635.31,102.5Z"/><path class="cls-1" d="M774.73,240.21,606.38,106.33v-74a7.74,7.74,0,0,0-7.74-7.75H579.87a7.75,7.75,0,0,0-7.74,7.75V235.92a7.75,7.75,0,0,0,7.74,7.74h18.77a7.74,7.74,0,0,0,7.74-7.74v-90l116.66,94a17.07,17.07,0,0,0,10.72,3.78h39.76A1.94,1.94,0,0,0,774.73,240.21Z"/><path class="cls-2" d="M512.4,396.5l-12-25.36a1.34,1.34,0,0,0-1.16-.8L473.05,369a1.39,1.39,0,0,0-1.25.69l-14.1,24a1.67,1.67,0,0,0-.07,1.51l12,25.33a1.4,1.4,0,0,0,1.18.81l26.14,1.3a1.31,1.31,0,0,0,1.22-.68l14.13-24A1.65,1.65,0,0,0,512.4,396.5Zm-27.81,9.55c-5.15-.25-9.14-5-8.91-10.64s4.61-10,9.76-9.71,9.15,5,8.91,10.64S489.74,406.31,484.59,406.05Z"/><path class="cls-2" d="M546.77,347.12a79.6,79.6,0,0,0-13.4-16.27l3.94-16.14a5.5,5.5,0,0,0-2.61-6.17l-21.26-11.12a4.65,4.65,0,0,0-6.05,1.65l-9.09,13.49a68.93,68.93,0,0,0-20-1.18l-6.11-14.57a4.75,4.75,0,0,0-6.06-2.81l-25,9.58a5.43,5.43,0,0,0-3.11,6.33l3.6,15.53A77.86,77.86,0,0,0,426.71,340l-14.83-4.31a4.77,4.77,0,0,0-5.67,2.84L396,361.72a5.61,5.61,0,0,0,1.51,6.59l12.34,9.89A88.77,88.77,0,0,0,408.75,400l-13.3,6.63a5.5,5.5,0,0,0-2.57,6.61l10.29,31.9a4.82,4.82,0,0,0,5.8,3.4l14.18-3.91a79.65,79.65,0,0,0,13.41,16.27l-3.94,16.14a5.49,5.49,0,0,0,2.6,6.17l21.27,11.12a4.63,4.63,0,0,0,6.05-1.65l9.09-13.48a69.19,69.19,0,0,0,20,1.18L497.73,495a4.74,4.74,0,0,0,6.07,2.81l25-9.58a5.41,5.41,0,0,0,3.12-6.32l-3.6-15.54a76.94,76.94,0,0,0,14.91-14.56l14.84,4.32a4.76,4.76,0,0,0,5.66-2.85l10.2-23.18a5.62,5.62,0,0,0-1.51-6.59l-12.34-9.9a88.71,88.71,0,0,0,1.11-21.83l13.3-6.64a5.49,5.49,0,0,0,2.58-6.6l-10.29-31.91a4.82,4.82,0,0,0-5.8-3.39ZM534.61,381.6c7.63,27.65-5.47,57.43-30,68.25-.65.29-1.3.54-1.95.8s-1.32.49-2,.71c-25.36,8.32-52.68-6-62.6-32.74-.52-1.39-1-2.8-1.37-4.21s-.95-2.77-1.35-4.22c-7.63-27.64,5.47-57.42,30-68.25.65-.28,1.31-.54,2-.79s1.31-.5,2-.72c25.37-8.31,52.68,6,62.61,32.74.51,1.4,1,2.8,1.37,4.21S534.21,380.16,534.61,381.6Z"/><path d="M537.23,134.73H513.61a131.14,131.14,0,0,0-11.68-30.68l16.72-18.22a6.36,6.36,0,0,0,0-8.46L484.51,40.14a5.18,5.18,0,0,0-7.76,0L460,58.37a109.13,109.13,0,0,0-28.15-12.73V19.89a5.74,5.74,0,0,0-5.48-6H378.11a5.75,5.75,0,0,0-5.49,6V45.6a109.47,109.47,0,0,0-28.19,12.71L327.76,40.14a5.18,5.18,0,0,0-7.76,0L285.86,77.37a6.36,6.36,0,0,0,0,8.46L302.48,104a131.39,131.39,0,0,0-11.72,30.78H267.27a5.75,5.75,0,0,0-5.48,6v52.63a5.75,5.75,0,0,0,5.48,6h23.45a131.13,131.13,0,0,0,11.71,30.83l-16.57,18.08a6.35,6.35,0,0,0,0,8.45L320,293.93a5.18,5.18,0,0,0,7.76,0l16.58-18.07a108.89,108.89,0,0,0,28.28,12.76v25.56a5.76,5.76,0,0,0,5.49,6H426.4a5.75,5.75,0,0,0,5.48-6V288.59a109.55,109.55,0,0,0,28.24-12.79l16.63,18.13a5.18,5.18,0,0,0,7.76,0l34.14-37.23a6.35,6.35,0,0,0,0-8.45L502,230.08a130.68,130.68,0,0,0,11.67-30.74h23.58a5.75,5.75,0,0,0,5.49-6V140.72A5.76,5.76,0,0,0,537.23,134.73ZM398.9,78.56c48.34-2.43,88.14,41,85.91,93.65-1.94,45.93-36.06,83.13-78.2,85.23-48.32,2.42-88.11-41-85.89-93.64C322.65,117.87,356.77,80.67,398.9,78.56Z"/><g id="layer1"><path class="cls-3" d="M375.06,230.9a2.39,2.39,0,0,1-2.3-2.24,2.51,2.51,0,0,1,1.8-2.74c15.85-3.84,19.53-12.36,21.24-31.12-3.69,3.3-9.12,5.91-17.06,5.91h-.14c-9.69,0-17.32-3.36-22.05-9.62-5-6.56-6.46-15.76-4.45-27.33,2.43-13.94,13.26-22.85,24.73-32.29,8.87-7.29,18-14.83,24-25.19a2.22,2.22,0,0,1,3.93,0c5.92,10.35,15.09,17.9,24,25.19,11.47,9.44,22.3,18.35,24.73,32.29,2,11.7.57,20.93-4.36,27.44-4.68,6.19-12.34,9.47-22.14,9.51h-.14c-7.94,0-13.37-2.6-17.06-5.91,1.71,18.76,5.39,27.28,21.24,31.12a2.51,2.51,0,0,1,1.8,2.74,2.39,2.39,0,0,1-2.3,2.24Z"/><path id="path3295" class="cls-1" d="M375.06,228.38c20-4.84,22.12-17.59,23.63-41-3.47,6.27-9.78,10.89-20.08,10.85-16.93-.06-28.27-10.79-24.24-34,4.07-23.36,34.54-32.42,48.38-56.61,13.85,24.19,44.32,33.25,48.39,56.61,4,23.17-6.84,33.9-24.24,34-10.3,0-16.61-4.58-20.08-10.85,1.51,23.45,3.66,36.2,23.63,41Z"/></g><path class="cls-4" d="M367.68,196.33c44.52-19.6,50.29-66.73,50.68-70.4-5.92-5.28-11.49-11.13-15.61-18.31-13.84,24.19-44.31,33.25-48.38,56.61C351.29,181.92,357.18,192.35,367.68,196.33Z"/><path class="cls-5" d="M417.36,125c-2.81,14.54-13.69,52-52.6,69.95a22.89,22.89,0,0,0,2.92,1.35c44.52-19.6,50.29-66.73,50.68-70.4Z"/><path class="cls-1" d="M169.45,25.37v-.05H44.24a7.75,7.75,0,0,0-7.75,7.75v216a7.75,7.75,0,0,0,7.75,7.75H60.43a7.75,7.75,0,0,0,7.75-7.75V56.28l97.95.06c19,1.43,35.92,18.82,35.92,40.07s-16.51,38.64-35.55,40.07l-67.62.1a7.74,7.74,0,0,0-7.73,7.74V158.9a7.73,7.73,0,0,0,7.74,7.74H168c35.57,0,64.41-31.63,64.41-70.66C232.38,57.51,204.34,26.23,169.45,25.37Z"/><path class="cls-1" d="M852.71,211.1V57.1H994a7.75,7.75,0,0,0,7.75-7.75V32.29A7.75,7.75,0,0,0,994,24.54H827.9a7.75,7.75,0,0,0-7.75,7.75V235.92a7.75,7.75,0,0,0,7.75,7.74h168a7.75,7.75,0,0,0,7.75-7.74V218.85a7.75,7.75,0,0,0-7.75-7.75Z"/><rect class="cls-1" x="877.04" y="113.43" width="101.93" height="32.56" rx="7.75"/><path class="cls-1" d="M1187.08,155c27.45-6,48.15-32.62,48.15-64.59,0-36.37-26.79-65.86-59.83-65.86H1057a7.75,7.75,0,0,0-7.75,7.75V235.92a7.75,7.75,0,0,0,7.75,7.74h16.94a7.75,7.75,0,0,0,7.75-7.74V57h92.5c17,0,30.83,15.39,30.83,34.37s-13.8,34.37-30.83,34.37h-58.89a7.74,7.74,0,0,0-7.74,7.75v16.95a7.74,7.74,0,0,0,7.74,7.74h38.36l55.9,82.12a7.78,7.78,0,0,0,6.41,3.38h27.85a1.93,1.93,0,0,0,1.6-3Z"/><path class="cls-2" d="M258,469.29v-170a4.84,4.84,0,0,0-4.84-4.84H234.74a4.83,4.83,0,0,0-4.84,4.84V492.56a4.84,4.84,0,0,0,4.84,4.84h145.5a4.84,4.84,0,0,0,4.84-4.84V474.13a4.84,4.84,0,0,0-4.84-4.84Z"/><path class="cls-2" d="M763.62,490.44l-76-156.14a4.83,4.83,0,0,0-4.35-2.72H664.51a4.86,4.86,0,0,0-4.37,2.75L585.26,491.12a4.84,4.84,0,0,0,4.4,6.93l15.72-.09a4.85,4.85,0,0,0,4.36-2.79l64.2-137.28,36.47,76.93H659.47a4.85,4.85,0,0,0-4.34,2.7l-6.82,13.78a4.84,4.84,0,0,0,4.34,7h68.89l17.23,36.34a4.84,4.84,0,0,0,4.37,2.77h16.13A4.84,4.84,0,0,0,763.62,490.44Z"/><path class="cls-2" d="M793.25,336.42V492.56a4.86,4.86,0,0,0,4.84,4.84h16.25a4.85,4.85,0,0,0,4.85-4.84v-135h99.25A8.54,8.54,0,0,1,927,366v97.32a8.84,8.84,0,0,1-8.81,8.81H850a4.84,4.84,0,0,0-4.85,4.84v15.53a4.85,4.85,0,0,0,4.85,4.84h69.81a33.11,33.11,0,0,0,33.11-33.11V364.4a32.81,32.81,0,0,0-32.81-32.82h-122A4.84,4.84,0,0,0,793.25,336.42Z"/><path class="cls-1" d="M1018.38,485.09h-9.17V497h-5.89V467.8h16.16v4.91h-10.27v7.48h9.17Z"/><path class="cls-1" d="M1043.4,485a17.28,17.28,0,0,1-.76,5.39,10.77,10.77,0,0,1-2.14,3.87,8.67,8.67,0,0,1-3.3,2.33,12.19,12.19,0,0,1-8.58,0,9,9,0,0,1-3.34-2.33,10.66,10.66,0,0,1-2.16-3.87,17,17,0,0,1-.77-5.39v-4.86a18.23,18.23,0,0,1,.76-5.54,11.31,11.31,0,0,1,2.14-4,8.94,8.94,0,0,1,3.33-2.42,11.77,11.77,0,0,1,8.58,0,8.91,8.91,0,0,1,3.32,2.42,11.18,11.18,0,0,1,2.16,4,18.23,18.23,0,0,1,.76,5.54Zm-5.91-4.9a18.2,18.2,0,0,0-.3-3.56,7.36,7.36,0,0,0-.89-2.41,3.68,3.68,0,0,0-1.44-1.39,4.74,4.74,0,0,0-4,0,3.7,3.7,0,0,0-1.45,1.39,7.6,7.6,0,0,0-.88,2.41,18.2,18.2,0,0,0-.3,3.56V485a16.7,16.7,0,0,0,.3,3.4,6.84,6.84,0,0,0,.89,2.31,3.8,3.8,0,0,0,1.47,1.33,4.57,4.57,0,0,0,2,.42,4.44,4.44,0,0,0,2-.42,3.63,3.63,0,0,0,1.43-1.33,6.84,6.84,0,0,0,.88-2.31,17.52,17.52,0,0,0,.29-3.4Z"/><path class="cls-1" d="M1056.48,486.33h-2.93V497h-5.9V467.8h9.41a12.31,12.31,0,0,1,3.9.57,7.78,7.78,0,0,1,2.91,1.69,7.32,7.32,0,0,1,1.82,2.75,10.64,10.64,0,0,1,.63,3.81,12.52,12.52,0,0,1-.29,2.86,8.35,8.35,0,0,1-.84,2.27,7.17,7.17,0,0,1-1.33,1.73,8.56,8.56,0,0,1-1.77,1.29l5.12,12V497h-6.34Zm-2.93-4.91h3.35a3.1,3.1,0,0,0,2.65-1.18,5.12,5.12,0,0,0,.88-3.13,8.41,8.41,0,0,0-.19-1.82,4,4,0,0,0-.6-1.38,2.86,2.86,0,0,0-1.06-.89,3.55,3.55,0,0,0-1.52-.31h-3.51Z"/><path class="cls-1" d="M1079.84,497V467.8h9a14.66,14.66,0,0,1,3.92.48,7.69,7.69,0,0,1,2.94,1.48,6.39,6.39,0,0,1,1.84,2.49,9.15,9.15,0,0,1,.63,3.55,8.71,8.71,0,0,1-.21,1.93,6.39,6.39,0,0,1-.66,1.72,6.17,6.17,0,0,1-1.15,1.46,5.8,5.8,0,0,1-1.65,1.07,5.1,5.1,0,0,1,1.9,1,5.38,5.38,0,0,1,1.27,1.51,7.07,7.07,0,0,1,.7,1.88,9.54,9.54,0,0,1,.22,2.08q0,4.24-2.34,6.41c-1.55,1.45-3.81,2.17-6.76,2.17Zm5.9-17h3.06a3.42,3.42,0,0,0,2.62-.91,3.78,3.78,0,0,0,.85-2.68,4.12,4.12,0,0,0-.8-2.84,3.39,3.39,0,0,0-2.61-.87h-3.12Zm0,4.29v7.81h3.77a3.47,3.47,0,0,0,1.47-.29,2.52,2.52,0,0,0,1-.79,3.37,3.37,0,0,0,.57-1.19,5.93,5.93,0,0,0,.18-1.5,5.43,5.43,0,0,0-.69-2.95,2.56,2.56,0,0,0-2.33-1.09Z"/><path class="cls-1" d="M1121.87,467.8v20.05a12,12,0,0,1-.71,4.36,7.7,7.7,0,0,1-2,3,7.92,7.92,0,0,1-3,1.7,13.12,13.12,0,0,1-3.85.54,13.32,13.32,0,0,1-3.9-.54,7.59,7.59,0,0,1-5-4.65,12,12,0,0,1-.71-4.36V467.8h5.94v20.05a9.37,9.37,0,0,0,.24,2.35,3.23,3.23,0,0,0,.71,1.41,2.44,2.44,0,0,0,1.16.71,6.79,6.79,0,0,0,3.19,0,2.37,2.37,0,0,0,1.15-.71,3.46,3.46,0,0,0,.71-1.41,9.37,9.37,0,0,0,.24-2.35V467.8Z"/><path class="cls-1" d="M1138.68,489.34a6.34,6.34,0,0,0-.14-1.37,2.71,2.71,0,0,0-.6-1.13,5,5,0,0,0-1.28-1,14.61,14.61,0,0,0-2.22-1.06,26.22,26.22,0,0,1-3.13-1.43,11.39,11.39,0,0,1-2.63-1.89,8.43,8.43,0,0,1-1.81-2.53,7.93,7.93,0,0,1-.67-3.34,8.11,8.11,0,0,1,.68-3.34,7.33,7.33,0,0,1,1.92-2.57,8.84,8.84,0,0,1,2.93-1.66,11.37,11.37,0,0,1,3.74-.59,10.21,10.21,0,0,1,3.8.67,8.43,8.43,0,0,1,2.89,1.87,8.17,8.17,0,0,1,1.83,2.84,10,10,0,0,1,.64,3.64h-5.87a7.41,7.41,0,0,0-.19-1.69,3.5,3.5,0,0,0-.61-1.32,2.79,2.79,0,0,0-1-.87,3.61,3.61,0,0,0-1.54-.31,3.81,3.81,0,0,0-1.46.26,3,3,0,0,0-1,.71,2.93,2.93,0,0,0-.6,1.08,4.34,4.34,0,0,0-.2,1.32,2.66,2.66,0,0,0,.31,1.3,4,4,0,0,0,.88,1.09,7.32,7.32,0,0,0,1.39.94c.54.29,1.14.58,1.79.86a22.08,22.08,0,0,1,3.57,1.65,10.78,10.78,0,0,1,2.55,2,7.49,7.49,0,0,1,1.52,2.58,9.84,9.84,0,0,1,.5,3.24,8.85,8.85,0,0,1-.63,3.43,6.88,6.88,0,0,1-1.8,2.53,8.18,8.18,0,0,1-2.84,1.59,11.83,11.83,0,0,1-3.75.55,12.26,12.26,0,0,1-3.7-.57,9.45,9.45,0,0,1-3.24-1.76,8.79,8.79,0,0,1-2.3-3,9.85,9.85,0,0,1-.87-4.3h5.92a8.09,8.09,0,0,0,.26,2.25,3.59,3.59,0,0,0,.79,1.49,3,3,0,0,0,1.31.83,6.23,6.23,0,0,0,1.83.25,3.77,3.77,0,0,0,1.43-.25,2.47,2.47,0,0,0,1-.69,2.54,2.54,0,0,0,.54-1A5.32,5.32,0,0,0,1138.68,489.34Z"/><path class="cls-1" d="M1154.68,497h-5.9V467.8h5.9Z"/><path class="cls-1" d="M1180.05,497h-5.9l-8.62-19.15V497h-5.9V467.8h5.9l8.64,19.17V467.8h5.88Z"/><path class="cls-1" d="M1199.86,484.36h-9.19v7.75h10.87V497h-16.76V467.8h16.72v4.91h-10.83v6.9h9.19Z"/><path class="cls-1" d="M1217.27,489.34a6.34,6.34,0,0,0-.14-1.37,2.83,2.83,0,0,0-.6-1.13,5.22,5.22,0,0,0-1.28-1,14.61,14.61,0,0,0-2.22-1.06,26.22,26.22,0,0,1-3.13-1.43,11.39,11.39,0,0,1-2.63-1.89,8.43,8.43,0,0,1-1.81-2.53,7.93,7.93,0,0,1-.67-3.34,8.11,8.11,0,0,1,.68-3.34,7.33,7.33,0,0,1,1.92-2.57,8.84,8.84,0,0,1,2.93-1.66,11.37,11.37,0,0,1,3.74-.59,10.21,10.21,0,0,1,3.8.67,8.43,8.43,0,0,1,2.89,1.87,8.17,8.17,0,0,1,1.83,2.84,10,10,0,0,1,.64,3.64h-5.87a7.41,7.41,0,0,0-.19-1.69,3.5,3.5,0,0,0-.61-1.32,2.79,2.79,0,0,0-1-.87,3.61,3.61,0,0,0-1.54-.31,3.81,3.81,0,0,0-1.46.26,3,3,0,0,0-1,.71,2.93,2.93,0,0,0-.6,1.08,4.34,4.34,0,0,0-.2,1.32,2.66,2.66,0,0,0,.31,1.3,4,4,0,0,0,.88,1.09,7.32,7.32,0,0,0,1.39.94c.54.29,1.14.58,1.79.86a22.08,22.08,0,0,1,3.57,1.65,10.78,10.78,0,0,1,2.55,2,7.49,7.49,0,0,1,1.52,2.58,9.84,9.84,0,0,1,.5,3.24,8.85,8.85,0,0,1-.63,3.43,6.88,6.88,0,0,1-1.8,2.53,8.18,8.18,0,0,1-2.84,1.59,11.83,11.83,0,0,1-3.75.55,12.26,12.26,0,0,1-3.7-.57,9.45,9.45,0,0,1-3.24-1.76,8.79,8.79,0,0,1-2.3-3,9.85,9.85,0,0,1-.87-4.3H1210a8.09,8.09,0,0,0,.26,2.25,3.59,3.59,0,0,0,.79,1.49,3,3,0,0,0,1.31.83,6.23,6.23,0,0,0,1.83.25,3.77,3.77,0,0,0,1.43-.25,2.47,2.47,0,0,0,1-.69,2.54,2.54,0,0,0,.54-1A5.32,5.32,0,0,0,1217.27,489.34Z"/><path class="cls-1" d="M1239.44,489.34a5.77,5.77,0,0,0-.14-1.37,2.68,2.68,0,0,0-.59-1.13,5.22,5.22,0,0,0-1.28-1,14.61,14.61,0,0,0-2.22-1.06,26.22,26.22,0,0,1-3.13-1.43,11.39,11.39,0,0,1-2.63-1.89,8.43,8.43,0,0,1-1.81-2.53,7.93,7.93,0,0,1-.67-3.34,8.11,8.11,0,0,1,.68-3.34,7.33,7.33,0,0,1,1.92-2.57,8.84,8.84,0,0,1,2.93-1.66,11.37,11.37,0,0,1,3.74-.59,10.21,10.21,0,0,1,3.8.67,8.3,8.3,0,0,1,2.88,1.87,8.06,8.06,0,0,1,1.84,2.84,10,10,0,0,1,.64,3.64h-5.87a6.87,6.87,0,0,0-.2-1.69,3.34,3.34,0,0,0-.6-1.32,2.79,2.79,0,0,0-1-.87,3.61,3.61,0,0,0-1.54-.31,3.77,3.77,0,0,0-1.46.26,2.87,2.87,0,0,0-1,.71,2.93,2.93,0,0,0-.6,1.08,4.06,4.06,0,0,0-.2,1.32,2.66,2.66,0,0,0,.31,1.3,4,4,0,0,0,.88,1.09,7.55,7.55,0,0,0,1.38.94c.55.29,1.14.58,1.8.86a22.08,22.08,0,0,1,3.57,1.65,11,11,0,0,1,2.55,2,7.49,7.49,0,0,1,1.52,2.58,9.84,9.84,0,0,1,.5,3.24,8.85,8.85,0,0,1-.63,3.43,6.79,6.79,0,0,1-1.81,2.53,8,8,0,0,1-2.83,1.59,11.83,11.83,0,0,1-3.75.55,12.26,12.26,0,0,1-3.7-.57,9.45,9.45,0,0,1-3.24-1.76,8.79,8.79,0,0,1-2.3-3,9.85,9.85,0,0,1-.87-4.3h5.92a8.09,8.09,0,0,0,.26,2.25,3.48,3.48,0,0,0,.79,1.49,3,3,0,0,0,1.31.83,6.23,6.23,0,0,0,1.83.25,3.77,3.77,0,0,0,1.43-.25,2.55,2.55,0,0,0,1-.69,2.41,2.41,0,0,0,.53-1A4.87,4.87,0,0,0,1239.44,489.34Z"/></svg>