<svg id="Layer_1" data-name="Layer 1" xmlns="http://www.w3.org/2000/svg" viewBox="0 0 256 256"><defs><style>.cls-1{fill:#bb001f;}</style></defs><title>Icons</title><path d="M208.51,56.37a87.62,87.62,0,1,0,6.87,34A87,87,0,0,0,208.51,56.37Zm-21,93.51A84.39,84.39,0,0,1,173,161.5l-4.66-10.66A72.17,72.17,0,0,1,145,161.05l4.66,10.66a84.69,84.69,0,0,1-43.27,0L111,161.06a72.27,72.27,0,0,1-23.35-10.21L83,161.51a84.57,84.57,0,0,1-26.16-26.15l10.65-4.65a72.27,72.27,0,0,1-10.21-23.35L46.67,112a84.66,84.66,0,0,1,0-43.3l10.63,4.64A72.12,72.12,0,0,1,67.52,50L56.9,45.36A84.55,84.55,0,0,1,83,19.24l4.64,10.62A72.24,72.24,0,0,1,111,19.66L106.4,9a84.68,84.68,0,0,1,43.23,0L145,19.66a72.41,72.41,0,0,1,23.35,10.22L173,19.25a84.57,84.57,0,0,1,26.15,26.16L188.5,50.05A72.24,72.24,0,0,1,198.7,73.4l10.64-4.64a84.86,84.86,0,0,1,0,43.2l-10.65-4.65a72.24,72.24,0,0,1-10.2,23.35l10.65,4.66A84,84,0,0,1,187.5,149.88Z"/><path d="M128,30a60.34,60.34,0,1,0,60.33,60.34A60.34,60.34,0,0,0,128,30Zm43.38,22.8-1.85,1.85a55.61,55.61,0,0,0-7.94-7.55l1.87-1.86A57.19,57.19,0,0,1,171.38,52.84Zm-36.69,94.54v-2.64a54.26,54.26,0,0,0,27.82-11.83l1.85,1.84A57.3,57.3,0,0,1,134.69,147.38ZM128,142.46a52.08,52.08,0,1,1,52.08-52.08A52.15,52.15,0,0,1,128,142.46Zm-7,4.89a57.31,57.31,0,0,1-29.55-12.72l1.85-1.85A54.17,54.17,0,0,0,121,144.7ZM73.9,81.79H71.25A57.32,57.32,0,0,1,83.62,54l1.85,1.85A54.25,54.25,0,0,0,73.9,81.79ZM70.83,95.43h2.64A54.17,54.17,0,0,0,83.93,122.9l-1.86,1.86A57.36,57.36,0,0,1,70.83,95.43Zm-.1-1.34c-.08-1.23-.13-2.46-.13-3.71a57.67,57.67,0,0,1,.47-7.24h2.65a55.73,55.73,0,0,0-.47,7.24c0,1.25,0,2.48.12,3.71ZM121,33.41v2.64A54.26,54.26,0,0,0,95.32,46.42l-1.85-1.85A57.19,57.19,0,0,1,121,33.41Zm13.65,0a57.15,57.15,0,0,1,27.69,11.07l-1.86,1.86A54.14,54.14,0,0,0,134.69,36ZM170.4,55.72l1.85-1.85a57.34,57.34,0,0,1,12.5,27.92H182.1A54.18,54.18,0,0,0,170.4,55.72Zm12.13,39.71h2.64a57.23,57.23,0,0,1-11.36,29.48L172,123.06A54.25,54.25,0,0,0,182.53,95.43Zm.1-1.34c.08-1.23.13-2.46.13-3.71a55.72,55.72,0,0,0-.48-7.24h2.65a57.67,57.67,0,0,1,.47,7.24c0,1.25-.05,2.48-.13,3.71ZM133.34,33.24v2.64c-1.76-.17-3.54-.26-5.34-.26a54.73,54.73,0,0,0-5.61.29V33.26c1.84-.18,3.72-.28,5.61-.28S131.58,33.07,133.34,33.24ZM92.39,45.4l1.86,1.86a55,55,0,0,0-7.9,7.58L84.49,53A57.26,57.26,0,0,1,92.39,45.4ZM82.9,125.83,84.76,124a55.61,55.61,0,0,0,7.55,7.94l-1.85,1.85A57.29,57.29,0,0,1,82.9,125.83Zm39.49,21.66v-2.64a54.74,54.74,0,0,0,5.61.28c1.8,0,3.58-.09,5.34-.26v2.65c-1.76.16-3.54.25-5.34.26S124.23,147.68,122.39,147.49Zm43-13.6L163.54,132a55,55,0,0,0,7.58-7.9L173,126A58.43,58.43,0,0,1,165.39,133.89Z"/><polygon points="142.24 73.78 169.96 78.7 149.19 97.7 153.06 125.58 128.58 111.7 103.26 124 108.89 96.43 89.37 76.15 117.34 72.99 130.59 48.15 142.24 73.78"/><path class="cls-1" d="M121.61,104.71c5.81-1.29,6.43-4.69,6.87-10.94-1,1.67-2.84,2.9-5.84,2.89-4.92,0-8.21-2.88-7-9s10-8.64,14.06-15.09c4,6.45,12.88,8.86,14.06,15.09s-2,9-7,9c-3,0-4.83-1.22-5.84-2.89.44,6.25,1.06,9.65,6.87,10.94Z"/><path d="M74.77,174.44l46.41,13.67h57.73a12.65,12.65,0,0,1,12.65,12.66h0a12.65,12.65,0,0,1-12.65,12.66H119.15l-.22,2.25h60a14.9,14.9,0,0,0,11.69-24.14l31.07-22.11a12,12,0,0,1,14.8,18.88l-37,31.87L146.71,252a19.58,19.58,0,0,1-10.15.65l-67.7-17.91-18,5.07V174.61Z"/><path d="M220.36,167.6l-31.29,22.27a14.87,14.87,0,0,0-6.85-3.63L219,160.16A12.24,12.24,0,0,1,235.27,162h0a11.42,11.42,0,0,1,2.7,6.4,14.32,14.32,0,0,0-9.34-3.48A14.18,14.18,0,0,0,220.36,167.6Z"/><path d="M170.09,185.86,202.36,163a12.25,12.25,0,0,1,11-1.61l-34.53,24.48Z"/><path d="M163.56,185.86l29.36-20.81a12.32,12.32,0,0,1,5.71-2.18l-32.43,23Z"/><rect x="15.36" y="166" width="30.21" height="85.15" rx="13.48" transform="translate(60.94 417.15) rotate(-180)"/></svg>