<svg id="Layer_1" data-name="Layer 1" xmlns="http://www.w3.org/2000/svg" viewBox="0 0 256 256"><defs><style>.cls-1{fill:#bb001f;}</style></defs><title>Icons</title><path class="cls-1" d="M102.72,174.1c18.16-1.22,21.62-11.21,25.84-29.92-3.82,4.58-9.94,7.46-19,6-14.87-2.33-23.52-12.51-17.11-30.66S126.82,98.08,142,80.44c9.19,21.37,34.85,32.77,35.55,52.16.68,19.23-10.2,26.42-25.5,24.13-9.06-1.36-14-5.94-16.31-11.46-1.58,19.12-1.26,29.69,15.7,36.28Z"/><path class="cls-1" d="M84.65,41.68c3-.2,3.57-1.85,4.26-4.94a3.15,3.15,0,0,1-3.13,1c-2.45-.38-3.87-2.06-2.82-5.05s5.67-3.54,8.17-6.45c1.51,3.52,5.74,5.4,5.85,8.6s-1.68,4.35-4.2,4a3.2,3.2,0,0,1-2.69-1.88c-.26,3.15-.2,4.89,2.59,6Z"/><path class="cls-1" d="M184.26,217.65c-3,.2-3.57,1.84-4.26,4.93a3.18,3.18,0,0,1,3.13-1c2.45.38,3.88,2.06,2.82,5s-5.66,3.54-8.16,6.45c-1.52-3.52-5.75-5.4-5.86-8.59s1.68-4.36,4.2-4a3.19,3.19,0,0,1,2.69,1.89c.26-3.15.21-4.9-2.59-6Z"/><path class="cls-1" d="M51.81,43.92a5.11,5.11,0,1,0-6,8.27l8.26,6,6-8.26a5.12,5.12,0,1,0-8.27-6"/><path d="M187.71,236.64l-28.34-4.34-36.94,5.91,63.18,9.67a9.86,9.86,0,0,0,11.25-8.26L199,226l-9.84,1.57Z"/><polygon points="190.92 215.67 200.77 214.1 203.16 198.44 198.26 167.79 190.92 215.67"/><path d="M217.45,42.46,203,137.1l4.9,30.65,19.2-125.4A9.86,9.86,0,0,0,218.8,31.1L185.17,26l1.9,11.86Z"/><polygon points="69.54 36.15 54 137.6 58.91 168.25 79.38 34.58 69.54 36.15"/><polygon points="175.32 24.44 158.66 21.89 121.72 27.8 177.22 36.3 175.32 24.44"/><path d="M51.63,215.8,54.21,199,49.3,168.29,42,215.91a9.87,9.87,0,0,0,8.26,11.25l8.67,1.33L57,216.63Z"/><polygon points="68.79 230 85.45 232.55 122.39 226.64 66.89 218.14 68.79 230"/><path d="M81.36,21.62l3.38.52,36.94-5.91L83.47,10.38a9.86,9.86,0,0,0-11.25,8.26l-.87,5.64,9.84-1.57Z"/><path d="M69.6,235.08,68.79,230l-9.85-1.51,1.54,9.64a9.86,9.86,0,0,0,11.3,8.18l50.65-8.1-37-5.66Z"/><path d="M38.56,41.11l31-5,1.81-11.87L37.13,29.76A9.86,9.86,0,0,0,29,41.06L49.3,168.29,54,137.6Z"/><path d="M215.16,213.38l-7.3-45.63-4.7,30.7,2.38,14.88-4.77.77L199,226l8-1.29A9.86,9.86,0,0,0,215.16,213.38Z"/><path d="M174.51,19.36l.81,5.08L185.17,26l-1.54-9.64a9.86,9.86,0,0,0-11.3-8.18l-50.65,8.1,37,5.66Z"/><polygon points="79.38 34.58 81.19 22.71 71.35 24.28 69.54 36.15 79.38 34.58"/><polygon points="190.92 215.67 189.11 227.54 198.95 225.97 200.77 214.1 190.92 215.67"/><polygon points="121.72 27.8 158.66 21.89 121.68 16.23 84.74 22.14 121.72 27.8"/><polygon points="58.91 168.25 54 137.6 49.3 168.29 54.21 198.95 58.91 168.25"/><polygon points="66.89 218.14 57.04 216.63 58.94 228.49 68.79 230 66.89 218.14"/><polygon points="177.22 36.3 187.07 37.81 185.17 25.95 175.32 24.44 177.22 36.3"/><polygon points="122.39 226.64 85.45 232.55 122.43 238.21 159.37 232.3 122.39 226.64"/><polygon points="198.26 167.79 203.16 198.44 207.86 167.75 202.96 137.09 198.26 167.79"/></svg>