<svg id="Layer_1" data-name="Layer 1" xmlns="http://www.w3.org/2000/svg" viewBox="0 0 256 256"><defs><style>.cls-1{fill:#606060;}.cls-2{fill:#700000;}.cls-3{fill:#bb001f;}.cls-4,.cls-5{fill:#fff;}.cls-4{opacity:0.25;}.cls-5{opacity:0.5;}</style></defs><title>Icons</title><path class="cls-1" d="M175.94,200.54l-6.22-13.09a.7.7,0,0,0-.6-.41l-13.5-.68a.71.71,0,0,0-.64.35l-7.29,12.42a.89.89,0,0,0,0,.78L153.87,213a.74.74,0,0,0,.61.42l13.5.67a.69.69,0,0,0,.63-.35l7.3-12.41A.89.89,0,0,0,175.94,200.54Zm-14.36,4.94A5.12,5.12,0,0,1,157,200a5,5,0,0,1,5-5,5.1,5.1,0,0,1,4.6,5.49A5,5,0,0,1,161.58,205.48Z"/><path class="cls-1" d="M193.69,175.05a41.41,41.41,0,0,0-6.93-8.4l2-8.33a2.83,2.83,0,0,0-1.35-3.19l-11-5.74a2.39,2.39,0,0,0-3.12.85l-4.69,7a35.84,35.84,0,0,0-10.33-.61l-3.15-7.52a2.46,2.46,0,0,0-3.13-1.45l-12.9,4.95a2.81,2.81,0,0,0-1.61,3.27l1.85,8a40.88,40.88,0,0,0-7.7,7.52L124,169.15a2.46,2.46,0,0,0-2.92,1.46l-5.27,12a2.93,2.93,0,0,0,.78,3.41L123,191.1a45.75,45.75,0,0,0-.58,11.27l-6.87,3.43a2.85,2.85,0,0,0-1.33,3.41l5.32,16.47a2.48,2.48,0,0,0,3,1.75l7.33-2a41.31,41.31,0,0,0,6.92,8.4l-2,8.33a2.85,2.85,0,0,0,1.35,3.19l11,5.74a2.4,2.4,0,0,0,3.12-.85l4.7-7a35.44,35.44,0,0,0,10.32.61l3.15,7.52a2.44,2.44,0,0,0,3.13,1.45l12.91-4.94a2.8,2.8,0,0,0,1.6-3.27l-1.85-8a40.28,40.28,0,0,0,7.7-7.52l7.66,2.23a2.46,2.46,0,0,0,2.92-1.47l5.27-12a2.92,2.92,0,0,0-.78-3.4l-6.37-5.11a46.3,46.3,0,0,0,.57-11.28l6.87-3.42a2.85,2.85,0,0,0,1.33-3.41L204,174.79a2.49,2.49,0,0,0-3-1.76Zm-6.29,17.8c3.94,14.28-2.82,29.65-15.5,35.24-.33.15-.67.28-1,.41s-.68.26-1,.37c-13.1,4.29-27.2-3.08-32.33-16.9-.26-.72-.49-1.45-.7-2.18s-.5-1.43-.7-2.18c-3.94-14.27,2.82-29.65,15.5-35.24l1-.41,1-.37c13.09-4.29,27.2,3.09,32.32,16.91.27.72.49,1.45.71,2.17S187.2,192.11,187.4,192.85Z"/><path d="M188.76,65.39h-12.2a67.27,67.27,0,0,0-6-15.85l8.63-9.41a3.28,3.28,0,0,0,0-4.36L161.54,16.55a2.75,2.75,0,0,0-2-.91,2.72,2.72,0,0,0-2,.91L148.9,26a56.43,56.43,0,0,0-14.54-6.58V6.09A3,3,0,0,0,131.53,3H106.6a3,3,0,0,0-2.83,3.09V19.36a56.37,56.37,0,0,0-14.56,6.57L80.6,16.55a2.65,2.65,0,0,0-4,0L59,35.77a3.28,3.28,0,0,0,0,4.36l8.58,9.36a67.7,67.7,0,0,0-6,15.9H49.37a3,3,0,0,0-2.83,3.09V95.65a3,3,0,0,0,2.83,3.09H61.48a67.49,67.49,0,0,0,6.05,15.93L59,124a3.28,3.28,0,0,0,0,4.36L76.6,147.58a2.65,2.65,0,0,0,4,0l8.56-9.33a56.23,56.23,0,0,0,14.61,6.59V158a3,3,0,0,0,2.83,3.09h24.93a3,3,0,0,0,2.83-3.09V144.82a56.26,56.26,0,0,0,14.58-6.6l8.59,9.36a2.67,2.67,0,0,0,4,0l17.62-19.22a3.28,3.28,0,0,0,0-4.36l-8.6-9.38a67.91,67.91,0,0,0,6-15.88h12.18a3,3,0,0,0,2.83-3.09V68.48A3,3,0,0,0,188.76,65.39Zm-71.42-29c24.95-1.25,45.5,21.15,44.35,48.36-1,23.71-18.62,42.92-40.37,44C96.37,130,75.82,107.6,77,80.4,78,56.68,95.58,37.47,117.34,36.38Z"/><g id="layer1"><path class="cls-2" d="M105,115a1.23,1.23,0,0,1-1.18-1.16,1.28,1.28,0,0,1,.93-1.41c8.18-2,10.08-6.38,11-16.07a12.67,12.67,0,0,1-8.81,3h-.07c-5,0-8.94-1.73-11.38-5-2.57-3.39-3.34-8.14-2.3-14.12,1.25-7.19,6.85-11.8,12.77-16.67,4.58-3.76,9.31-7.66,12.37-13a1.14,1.14,0,0,1,2,0c3.06,5.34,7.79,9.24,12.37,13,5.92,4.87,11.51,9.48,12.77,16.67,1.05,6,.29,10.81-2.25,14.17-2.42,3.2-6.37,4.89-11.43,4.91h-.07a12.72,12.72,0,0,1-8.82-3c.89,9.69,2.79,14.09,11,16.07a1.28,1.28,0,0,1,.93,1.41,1.24,1.24,0,0,1-1.19,1.16Z"/><path id="path3295" class="cls-3" d="M105,113.74c10.32-2.5,11.43-9.08,12.2-21.19-1.79,3.23-5,5.62-10.36,5.6-8.74,0-14.6-5.57-12.52-17.54s17.83-16.73,25-29.22c7.15,12.49,22.88,17.16,25,29.22s-3.53,17.51-12.51,17.54c-5.32,0-8.57-2.37-10.36-5.6.77,12.11,1.88,18.69,12.19,21.19Z"/></g><path class="cls-4" d="M101.21,97.19c23-10.12,26-34.45,26.17-36.35a38.93,38.93,0,0,1-8.06-9.45c-7.15,12.49-22.88,17.16-25,29.22C92.75,89.75,95.79,95.14,101.21,97.19Z"/><path class="cls-5" d="M126.86,60.38c-1.45,7.5-7.06,26.86-27.16,36.12a12.92,12.92,0,0,0,1.51.69c23-10.12,26-34.45,26.17-36.35Z"/></svg>