<svg id="Layer_1" data-name="Layer 1" xmlns="http://www.w3.org/2000/svg" viewBox="0 0 256 256"><defs><style>.cls-1{fill:#bb001f;}</style></defs><title>Icons</title><path class="cls-1" d="M81.89,128.67c15.49-3.44,17.16-12.52,18.33-29.21-2.69,4.46-7.59,7.75-15.57,7.72-13.14,0-21.93-7.68-18.81-24.17S92.63,60,103.38,42.73C114.12,60,137.75,66.39,140.91,83s-5.31,24.13-18.8,24.17c-8,0-12.89-3.26-15.58-7.72,1.17,16.69,2.84,25.77,18.33,29.21Z"/><rect x="65.21" y="162.29" width="51.51" height="10.03" rx="5.02"/><rect x="65.21" y="182.02" width="112.35" height="10.03" rx="5.02"/><rect x="65.21" y="201.75" width="112.35" height="10.03" rx="5.02"/><polygon points="168.53 154.46 147.1 132.92 210.5 69.12 231.94 90.66 168.53 154.46"/><polygon points="129.56 171.99 138.01 141.86 159.54 163.5 129.56 171.99"/><path d="M193.31,162.72v62.17H40.13V31.11H193.31V76.65h0a54.85,54.85,0,0,0,16.07-38.78V28.24a17.45,17.45,0,0,0-17.45-17.45H41.51A17.45,17.45,0,0,0,24.06,28.24V227.76a17.45,17.45,0,0,0,17.45,17.45H191.93a17.45,17.45,0,0,0,17.45-17.45V123.94h0A54.85,54.85,0,0,0,193.31,162.72Z"/></svg>