<svg id="Layer_1" data-name="Layer 1" xmlns="http://www.w3.org/2000/svg" viewBox="0 0 256 256"><defs><style>.cls-1{fill:#bb001f;}</style></defs><title>Icons</title><path d="M118.37,22.94q-1.65,7.47-2.07,10.91H120Q119.2,29.44,118.37,22.94Z"/><path d="M240.25,92.58l-13.19,4-12.35-32.4a30.89,30.89,0,0,0-28.87-19.89h-5.71V17.5a9.5,9.5,0,0,0-9.5-9.5H85.38a9.5,9.5,0,0,0-9.5,9.5V44.25H70.16A30.89,30.89,0,0,0,41.29,64.14L28.94,96.54l-13.19-4A9.9,9.9,0,0,0,3,102.07v7a17.54,17.54,0,0,0,13.27,17l.92.23v0A163,163,0,0,0,9.5,175.8v58.45A13.76,13.76,0,0,0,23.25,248H39a13.76,13.76,0,0,0,13.75-13.75V215.67h150.5v18.58A13.76,13.76,0,0,0,217,248h15.75a13.76,13.76,0,0,0,13.75-13.75V175.8a163,163,0,0,0-7.7-49.51v0l.92-.23a17.54,17.54,0,0,0,13.27-17v-7A9.9,9.9,0,0,0,240.25,92.58ZM160.4,17.14h10.8v26H160.4Zm-27.49,0h10.44c.19.72.57,1.91,1.13,3.58.45,1.28.82,2.45,1.1,3.52l2.31-7.1H157l-3.8,11.5,5.72,14.49h-10a59.27,59.27,0,0,1-3.29-9.47q-.41,2.48-1.13,5.24l-1,4.23H132.91l3.93-14.49Zm-7.17,0,6.17,26h-11l-.58-4.67h-3.86l-.65,4.67H104.62l5.51-26Zm-42.62,0h23.59v5.21H100.3V43.13H89.5V22.35H83.12ZM38.74,118.78,57.2,68.66a18.37,18.37,0,0,1,17.25-12h107.1a18.37,18.37,0,0,1,17.25,12l18.46,50.12a8.31,8.31,0,0,1-7.8,11.18H46.54A8.31,8.31,0,0,1,38.74,118.78Zm43.89,60.47A9.76,9.76,0,0,1,72.88,189H44.38a9.75,9.75,0,0,1-9.75-9.75V168.38a9.74,9.74,0,0,1,9.75-9.75h28.5a9.75,9.75,0,0,1,9.75,9.75Zm138.75,0a9.76,9.76,0,0,1-9.75,9.75h-28.5a9.75,9.75,0,0,1-9.75-9.75V168.38a9.74,9.74,0,0,1,9.75-9.75h28.5a9.75,9.75,0,0,1,9.75,9.75Z"/><path class="cls-1" d="M153.2,123.56c10.81-2.4,12-8.73,12.79-20.37-1.88,3.11-5.3,5.4-10.87,5.38-9.16,0-15.3-5.36-13.12-16.86s18.69-16.09,26.19-28.1c7.49,12,24,16.5,26.18,28.1s-3.7,16.83-13.11,16.86c-5.58,0-9-2.27-10.87-5.38.82,11.64,2,18,12.79,20.37Z"/></svg>