<svg id="Layer_1" data-name="Layer 1" xmlns="http://www.w3.org/2000/svg" viewBox="0 0 256 256"><defs><style>.cls-1{fill:#bb001f;}</style></defs><title>Icons</title><path class="cls-1" d="M160.75,145c8.81-1.95,9.76-7.11,10.42-16.6-1.53,2.53-4.31,4.4-8.85,4.39-7.47,0-12.47-4.37-10.7-13.75s15.24-13.11,21.35-22.9c6.11,9.79,19.54,13.45,21.34,22.9s-3,13.72-10.69,13.75c-4.54,0-7.33-1.86-8.86-4.39.67,9.49,1.61,14.65,10.42,16.6Z"/><path d="M243.31,53.78c-5.27,0-10.54,0-16.07,0V50.62c0-4.73.06-9.47,0-14.2a8.88,8.88,0,0,0-7.87-8.85c-21.92-2.37-43.24-.26-63.49,9.06a78.1,78.1,0,0,0-27.12,20.43c-.19.22-.4.43-.74.8-.34-.37-.55-.58-.74-.8a78.1,78.1,0,0,0-27.12-20.43C79.89,27.31,58.57,25.2,36.65,27.57a8.88,8.88,0,0,0-7.87,8.85c-.08,4.73,0,9.47,0,14.2v3.16c-5.53,0-10.8,0-16.07,0C7,53.81,3,57.72,3,63.38q0,78.21,0,156.4c0,6.76,5.94,11,12.38,9a203.06,203.06,0,0,1,58-9.57c17.59-.25,34.73,2,51,9.32a9.06,9.06,0,0,0,7.4,0c16.22-7.29,33.36-9.57,51-9.32a203.06,203.06,0,0,1,58,9.57c6.44,2,12.37-2.25,12.38-9q0-78.19,0-156.4C253,57.72,249,53.81,243.31,53.78ZM21.58,207.72V72.38h7.18v2.3q0,53.59,0,107.2c0,5.41,3.62,9.46,8.78,9.7a48.29,48.29,0,0,0,5.07-.4c16.43-1.09,32.46.59,47.76,7.08,2.12.9,4.15,2,6.21,3a3.92,3.92,0,0,1,.52.39C71.53,198.87,46.48,201.55,21.58,207.72Zm101.52-4.6c-23.49-19.19-55-24.75-84.25-24.38V36.36c.32-.08,4.68-.19,4.93-.2,18.28-.46,36,2.12,52.45,10.52a64.34,64.34,0,0,1,25.86,23.4,6.34,6.34,0,0,1,1,3.2q.07,63.9,0,127.81Zm9.8-2q0-63.9,0-127.81a6.34,6.34,0,0,1,1-3.2,64.34,64.34,0,0,1,25.86-23.4c16.48-8.4,34.17-11,52.45-10.52.25,0,4.61.12,4.93.2V178.74c-29.28-.37-60.76,5.19-84.25,24.38Zm101.52,6.63c-24.9-6.17-49.95-8.85-75.52-6.05a3.92,3.92,0,0,1,.52-.39c2.06-1,4.09-2.12,6.21-3,15.3-6.49,31.33-8.17,47.76-7.08a48.29,48.29,0,0,0,5.07.4c5.16-.24,8.78-4.29,8.78-9.7q0-53.59,0-107.2v-2.3h7.18Z"/></svg>