<svg xmlns="http://www.w3.org/2000/svg" width="49.239" height="40" viewBox="0 0 49.239 40">
    <defs>
        <style>
            .cls-1{fill:#fff}
        </style>
    </defs>
    <g id="twitter" transform="translate(-9.271 -14.752)">
        <path id="Path_212" d="M60.361 131.578a28.837 28.837 0 0 0 44.249-24.371q0-.6-.024-1.186c.576-.453 4.138-3.309 5.012-5.144a23.389 23.389 0 0 1-5.724 1.486h-.018l.015-.01c.261-.174 3.908-2.657 4.4-5.616a35.125 35.125 0 0 1-4.911 2.048c-.474.158-.971.312-1.483.456a10.118 10.118 0 0 0-17.242 9.2c-.781-.032-12.675-.7-20.766-10.5 0 0-4.836 6.6 2.882 13.39a10.4 10.4 0 0 1-4.37-1.3s-.743 8 8 10.043a9.258 9.258 0 0 1-4.463.187s1.534 6.462 9.3 7.066a19.433 19.433 0 0 1-14.857 4.245z" class="cls-1" data-name="Path 212" transform="translate(-51.087 -81.289)"/>
    </g>
</svg>
